<svg width="1485.1" height="252" viewBox="0 0 1485.1 252" xmlns="http://www.w3.org/2000/svg">
 <style type="text/css">.A{fill:#FFFFFF;}
	.B{fill:#8C8C8C;}
	.C{fill:#F47C20;}</style>

 <g>
  <title>background</title>
  <rect fill="none" id="canvas_background" height="254" width="1487.1" y="-1" x="-1"/>
 </g>
 <g>
  <title>Layer 1</title>
  <g id="svg_1">
   <path id="svg_2" d="m1422.6,94.7c-6.4,0 -12.5,1.2 -17.9,3.1c-1.4,-0.4 -3,-0.6 -4.6,-0.6l-24,0c-6.7,0 -12.7,3.5 -16,8.8c-10.2,-7.1 -22.7,-11.3 -36.1,-11.3c-18.3,0 -34.7,7.8 -46.3,20.2c-11.7,-14.2 -29.6,-21.1 -46.8,-20.1l0,-12.2c0,-10.5 -8.5,-19 -19,-19l-24,0c-6.2,0 -11.7,2.9 -15.1,7.5c-10.9,-7 -23.4,-11 -35.7,-11c-12.8,0 -24.7,3.9 -34.3,10.6l-4.4,-4.9c-2.5,-2.7 -5.7,-4.7 -9.2,-5.7c-2.2,-2.9 -5.3,-5.1 -8.7,-6.4l-11.4,-4.2c-3.5,-1.3 -7.5,-1.6 -11,-0.8c-3.3,-1.5 -7.1,-2 -10.7,-1.6l-12,1.7c-5.8,0.7 -11,4 -14.1,9c-3.1,5 -3.7,11.3 -1.7,16.8l3.9,10.5c-28.8,5.9 -51.7,31.2 -54.4,61.4c-5.2,-29.5 -31,-52 -62,-52c-12.1,0 -23.5,3.4 -33.1,9.4l0,-21.3c0,-10.5 -8.5,-19 -19,-19l-24,0c-10.5,0 -19,8.5 -19,19l0,12.2c-1.2,-0.1 -2.3,-0.1 -3.5,-0.1c-18.1,0 -34.4,7.8 -45.8,20.1c-11,-13.3 -27.3,-20.1 -43.6,-20.1c-6.2,0 -12.1,1.1 -17.6,3.1c-1.5,-0.4 -3,-0.6 -4.6,-0.6l-24,0c-6.7,0 -12.5,3.4 -15.9,8.6c-9.8,-6.9 -22.1,-11.2 -36.2,-11.2c-11.2,0 -21.9,3.2 -31.1,8.7c-2.9,-3.1 -6.8,-5.3 -11.2,-6l0,-4c0,-10.5 -8.5,-19 -19,-19l-23.9,0c-10.5,0 -19,8.5 -19,19l0,4c-3.9,0.6 -7.4,2.4 -10.1,5c-14.2,-8.3 -32.2,-10 -46.6,-4.6c-1.5,-0.4 -3,-0.6 -4.6,-0.6l-19.4,0c0.3,-1.9 0.5,-3.9 0.5,-5.9c0,-18.2 -14.8,-33 -33,-33c-8,0 -15.4,2.9 -21.1,7.6c-2.7,-1.5 -5.9,-2.4 -9.3,-2.4l-25.7,0c-5,0 -9.9,2 -13.4,5.6c-3.6,3.6 -5.6,8.4 -5.6,13.4l0,15.5l-14.5,-19.1c-10.1,-13.3 -21.3,-16.1 -28.8,-16.1c-19.1,0 -33,13.6 -33,32.4l0,103.5c0,10.5 8.5,19 19,19l25.7,0c5,0 9.9,-2 13.4,-5.6c3.6,-3.6 5.6,-8.4 5.6,-13.4l0,-15.5l14.5,19.1c10.1,13.3 21.2,16.1 28.8,16.1c7.5,0 14.1,-2.1 19.5,-5.8c3.4,3.1 7.9,5 12.8,5l24,0c2.9,0 5.6,-0.6 8,-1.8c2.4,1.1 5.1,1.7 8,1.7l24,0c8.3,0 15.4,-5.4 18,-12.9c2.5,7.5 9.6,12.8 18,12.8l24,0c3.7,0 7.2,-1.1 10.1,-2.9c2.9,1.9 6.4,2.9 10.2,2.9l23.9,0c9.2,0 16.8,-6.5 18.6,-15.2c11.3,10.9 26.5,17.8 42.9,17.8c13.2,0 25.8,-4 36.2,-10.9c3.4,5 9.2,8.4 15.7,8.4l24,0c8.3,0 15.4,-5.4 18,-12.9c2.6,7.5 9.6,12.8 18,12.8l24,0c6.7,0 12.6,-3.5 15.9,-8.7c10.1,7.1 22.5,11.3 35.7,11.3c6.4,0 12.5,-1.2 17.9,-3.1c1.4,0.4 3,0.6 4.6,0.6l24,0c6.7,0 12.7,-3.5 16,-8.8c10.2,7.1 22.7,11.3 36.1,11.3c32.8,0 59.7,-25 62.7,-56.9c5.5,32.5 35.1,58.2 69.7,58.2c19.2,0 36.6,-7.7 48.9,-20.1c14,12.3 31.8,19.7 48.7,19.7c13.3,0 25.6,-4.2 35.4,-11.4c3.4,4.8 9.1,8 15.5,8l24,0c8.3,0 15.4,-5.4 18,-12.9c2.6,7.5 9.6,12.8 18,12.8l24,0c6.7,0 12.6,-3.5 16,-8.8c10.2,7.1 22.7,11.3 36.1,11.3c12.1,0 23.5,-3.4 33.1,-9.4l0,21.5c0,10.5 8.5,19 19,19l24,0c10.5,0 19,-8.5 19,-19l0,-12.2c1.2,0.1 2.4,0.1 3.5,0.1c34.5,0 62.6,-28.2 62.6,-62.8c-0.2,-34.1 -28.3,-62.3 -62.7,-62.3" class="A"/>
   <path id="svg_3" d="m212.2,66c-0.7,-10.8 -9.7,-19.2 -20.6,-19.2l-28.6,0c-8.3,-28.9 -27.4,-46.8 -51.4,-46.8c-24,0 -43.1,17.9 -51.4,46.7l-28.6,-0.1c-1,0 -1.8,0.1 -2.7,0.2c-9.8,1.4 -17.3,9.4 -17.9,19.1l-10.9,146.5c0,0.5 -0.1,0.9 -0.1,1.4c0,5.2 1.9,10.1 5.2,13.8c3.8,4.5 9.4,7 15.5,7l181.8,0c6.1,0 11.6,-2.6 15.4,-6.9c3.4,-3.7 5.3,-8.6 5.3,-13.9c0,-0.5 0,-0.9 -0.1,-1.4l-10.9,-146.4z" class="A"/>
   <path id="svg_4" d="m477.2,113.7c-9,0 -17,3.6 -21.9,9.6l-0.3,0l0,-7l-24,0l0,82.6l24,0l0,-40.2c0,-16 8.7,-23 18.6,-23c6.9,0 17.3,4.4 17.3,20.6l0,42.5l24,0l0,-44.3c0.1,-27.8 -19,-40.8 -37.7,-40.8m-74,-36.3c-7.7,0 -14,6.3 -14,14c0,7.7 6.3,14 14,14c7.7,0 14,-6.3 14,-14c0,-7.8 -6.3,-14 -14,-14m-12,121.4l24,0l0,-82.6l-24,0l0,82.6zm-44.1,-44.4l-48.6,-64c-5,-6.6 -9.8,-8.6 -13.7,-8.6c-9.2,0 -14,5.5 -14,13.5l0,103.5l25.7,0l0,-71.9l48.6,64c5,6.6 9.8,8.6 13.7,8.6c9.2,0 14,-5.5 14,-13.5l0,-103.4l-25.7,0l0,71.8zm559.9,-40.7c-24.3,0 -44.1,19.7 -44.1,43.9c0,24.2 19.7,43.8 44.1,43.8s44,-19.7 44,-43.8c0,-24.3 -19.7,-43.9 -44,-43.9m-0.1,66c-12,0 -21.7,-9.9 -21.7,-22.2c0,-12.2 9.8,-22.2 21.7,-22.2c12,0 21.7,9.9 21.7,22.2c0.1,12.3 -9.7,22.2 -21.7,22.2m-347.6,-86.3l-23.9,0l0,22.8l-16,0l0,19.5l16,0l0,63.1l23.9,0l0,-63.1l16.2,0l0,-19.5l-16.2,0l0,-22.8zm159.6,20.3c-9,0 -17,3.6 -21.9,9.6l-0.3,0l0,-7l-24,0l0,82.6l24,0l0,-40.2c0,-16 8.7,-23 18.6,-23c6.9,0 17.3,4.4 17.3,20.6l0,42.5l24,0l0,-44.3c0.1,-27.8 -19.1,-40.8 -37.7,-40.8m111.9,8.6l-0.4,0c-1.9,-2.8 -10.8,-8.6 -22.1,-8.6c-23.7,0 -43.6,19.7 -43.6,43.8c0,24.1 19.9,43.9 43.6,43.9c11.3,0 20.2,-5.8 22.1,-8.6l0.4,0l0,6.1l24,0l0,-116.3l-24,0l0,39.7zm-21.7,57.5c-12.5,0 -22.1,-10 -22.1,-22.3c0,-12.3 9.6,-22.4 22.1,-22.4c12.6,0 21.8,9.9 21.8,22.4c0.1,12.5 -9.2,22.3 -21.8,22.3m-188.5,-66.1c-24.8,0 -43.2,22 -43.2,43.7c0,22.5 18.7,44 43.4,44c18,0 32.7,-10.1 39.1,-22.6l-19.6,-6.9c-5.1,6.4 -11.4,9.3 -19.7,9.3c-8.4,0 -18.2,-5.5 -20.5,-16l48.7,0c10.5,0 15.8,-2.1 15.8,-9.9c-0.5,-17.3 -15.4,-41.6 -44,-41.6m-20.2,34.9c3.7,-10.4 12.1,-14.6 20.6,-14.6c11.9,0 18.7,7.5 21.1,14.6l-41.7,0z" class="B"/>
   <path id="svg_5" d="m1048.1,96.8c0.1,0 0.2,-0.1 0.2,-0.2l2.2,-30.1c0,-0.2 -0.2,-0.4 -0.4,-0.4l-12.3,1.7c-0.2,0 -0.4,0.3 -0.3,0.5l10.4,28.4c-0.1,0.1 0,0.1 0.2,0.1m275.8,16.9c-24.3,0 -44.1,19.7 -44.1,43.9c0,24.2 19.7,43.8 44.1,43.8c24.3,0 44,-19.7 44,-43.8c0.1,-24.3 -19.6,-43.9 -44,-43.9m0,66c-12,0 -21.7,-10 -21.7,-22.2c0,-12.2 9.7,-22.2 21.7,-22.2c12,0 21.7,9.9 21.7,22.2c0.1,12.3 -9.7,22.2 -21.7,22.2m-265.7,-82l16,-25.6c0.1,-0.2 0,-0.5 -0.2,-0.5l-11.7,-4.2c-0.2,-0.1 -0.4,0.1 -0.5,0.3l-4.2,29.9c0,0.1 0.1,0.2 0.2,0.3c0.2,0 0.3,-0.1 0.4,-0.2m-19.6,82.3c-6.7,0 -14.2,-2.8 -18.1,-7.6l48.2,-28c10.3,-6 15.1,-11.2 10.7,-18.9c-6.9,-10.9 -24.3,-22.5 -43.2,-22.5c-26.6,0 -48.4,23.6 -48.4,49.8c0,28.1 24.7,49.8 51.7,49.8c25,0 47.3,-18 48.5,-44l-24.8,0c-1.2,11.7 -10.9,21.4 -24.6,21.4m-0.8,-55.6c6.7,0 11.9,2.4 16.8,6.9l-43.3,25c-3.2,-16.5 9.6,-31.9 26.5,-31.9m46.5,-45.8c-0.2,-0.2 -0.4,-0.2 -0.6,0l-17.7,24.4c-0.1,0.1 -0.1,0.2 0,0.3c0.1,0.1 0.2,0.1 0.3,0.1l26.2,-15.1c0.2,-0.1 0.2,-0.4 0.1,-0.5l-8.3,-9.2zm149.8,35.1c-9,0 -17,3.7 -21.9,9.6l-0.3,0l0,-40.7l-24,0l0,116.2l24,0l0,-40.2c0,-16 8.7,-23 18.6,-23c6.9,0 17.4,4.4 17.4,20.6l0,42.5l24,0l0,-44.3c-0.1,-27.7 -19.3,-40.7 -37.8,-40.7m188.5,0c-11.4,0 -20.2,5.8 -22.1,8.6l-0.4,0l0,-6.1l-24,0l0,116.2l24,0l0,-39.7l0.4,0c1.9,2.8 10.8,8.6 22.1,8.6c23.7,0 43.6,-19.7 43.6,-43.8c-0.1,-24.1 -20,-43.8 -43.6,-43.8m-0.9,66.2c-12.6,0 -21.8,-9.9 -21.8,-22.3c0,-12.5 9.3,-22.3 21.8,-22.3c12.5,0 22.1,10 22.1,22.3c0.1,12.2 -9.5,22.3 -22.1,22.3m-278.2,-50.8c-11.5,-3.9 -20.3,-6.7 -20.3,-14.8c0,-5.4 4.7,-10.5 13.5,-10.5c8.9,0 14.2,4.7 18.5,8.2l19.8,-13.8c-8.4,-10.4 -22.8,-19.1 -37.9,-19.1c-21,0 -39.1,15.4 -39.1,35.5c0,15 10.1,29.2 31.3,36.2c13.2,4.4 21.5,7.1 21.5,15.5c0,5.8 -5.9,11.1 -13.1,11.1c-8.9,0 -16.1,-5.9 -21.7,-10.9l-21,14.7c10.5,12.1 27,21 42.1,21c23.4,0 39.4,-17.8 39.4,-36.4c-0.1,-14.4 -8.2,-28.4 -33,-36.7" class="C"/>
   <path id="svg_6" d="m193.3,67.2c-0.1,-0.8 -0.8,-1.5 -1.7,-1.5l-44,0c-3.8,-29.2 -18.3,-46.8 -36,-46.8c-17.7,0 -32.2,17.6 -36,46.8l-44.1,-0.1c-0.8,0.1 -1.6,0.7 -1.6,1.6l-10.9,146.6c0,0.5 0.1,0.9 0.5,1.3c0.3,0.4 0.7,0.6 1.2,0.6l181.8,0c0.5,0 1,-0.1 1.2,-0.6c0.4,-0.3 0.5,-0.8 0.5,-1.3l-10.9,-146.6zm-81.7,-38.1c15.4,0 23.1,17.4 25.8,36.7l-51.6,0c2.6,-19.3 10.4,-36.7 25.8,-36.7" class="C"/>
  </g>
 </g>
</svg>